{
  "accessors": [
    {
      "bufferView": 2,
      "componentType": 5126,
      "count": 65532,
      "max": [
        35.85309982299805,
        109.26899719238281,
        37.5713996887207
      ],
      "min": [
        -36.06410217285156,
        0.6213000416755676,
        -33.444602966308594
      ],
      "type": "VEC3"
    },
    {
      "bufferView": 2,
      "byteOffset": 786384,
      "componentType": 5126,
      "count": 65532,
      "max": [
        1.0,
        1.0,
        1.0
      ],
      "min": [
        -1.0,
        -1.0,
        -1.0
      ],
      "type": "VEC3"
    },
    {
      "bufferView": 3,
      "componentType": 5126,
      "count": 65532,
      "max": [
        1.0,
        1.0,
        1.0,
        1.0
      ],
      "min": [
        -1.0,
        -1.0,
        -1.0,
        -1.0
      ],
      "type": "VEC4"
    },
    {
      "bufferView": 1,
      "componentType": 5126,
      "count": 65532,
      "max": [
        0.9892650246620178,
        0.9611790180206299
      ],
      "min": [
        0.03854899853467941,
        0.0
      ],
      "type": "VEC2"
    },
    {
      "bufferView": 0,
      "componentType": 5125,
      "count": 292125,
      "type": "SCALAR"
    },
    {
      "bufferView": 2,
      "byteOffset": 1572768,
      "componentType": 5126,
      "count": 65532,
      "max": [
        36.34830093383789,
        124.78070831298828,
        37.72359848022461
      ],
      "min": [
        -36.38969802856445,
        -0.055400002747774124,
        -33.49769973754883
      ],
      "type": "VEC3"
    },
    {
      "bufferView": 2,
      "byteOffset": 2359152,
      "componentType": 5126,
      "count": 65532,
      "max": [
        1.0,
        1.0,
        1.0
      ],
      "min": [
        -1.0,
        -1.0,
        -1.0
      ],
      "type": "VEC3"
    },
    {
      "bufferView": 3,
      "byteOffset": 1048512,
      "componentType": 5126,
      "count": 65532,
      "max": [
        1.0,
        1.0,
        0.9999969005584717,
        1.0
      ],
      "min": [
        -1.0,
        -1.0,
        -0.9999980330467224,
        -1.0
      ],
      "type": "VEC4"
    },
    {
      "bufferView": 1,
      "byteOffset": 524256,
      "componentType": 5126,
      "count": 65532,
      "max": [
        0.9752219915390015,
        1.0
      ],
      "min": [
        0.0,
        0.0
      ],
      "type": "VEC2"
    },
    {
      "bufferView": 0,
      "byteOffset": 1168500,
      "componentType": 5125,
      "count": 289239,
      "type": "SCALAR"
    },
    {
      "bufferView": 2,
      "byteOffset": 3145536,
      "componentType": 5126,
      "count": 652,
      "max": [
        0.8162000179290771,
        103.07740020751953,
        -32.89030075073242
      ],
      "min": [
        -2.9651999473571777,
        100.94229888916016,
        -33.52360153198242
      ],
      "type": "VEC3"
    },
    {
      "bufferView": 2,
      "byteOffset": 3153360,
      "componentType": 5126,
      "count": 652,
      "max": [
        0.9998651146888733,
        0.9999939203262329,
        0.9999943971633911
      ],
      "min": [
        -0.9876826405525208,
        -0.9999844431877136,
        -0.9999814629554749
      ],
      "type": "VEC3"
    },
    {
      "bufferView": 3,
      "byteOffset": 2097024,
      "componentType": 5126,
      "count": 652,
      "max": [
        0.9999803900718689,
        0.999997079372406,
        0.9999954700469971,
        -1.0
      ],
      "min": [
        -0.999814510345459,
        -0.9999681115150452,
        -0.9999985694885254,
        -1.0
      ],
      "type": "VEC4"
    },
    {
      "bufferView": 1,
      "byteOffset": 1048512,
      "componentType": 5126,
      "count": 652,
      "max": [
        0.9495360255241394,
        0.9560229778289795
      ],
      "min": [
        0.9173030257225037,
        0.9215649962425232
      ],
      "type": "VEC2"
    },
    {
      "bufferView": 0,
      "byteOffset": 2325456,
      "componentType": 5125,
      "count": 2571,
      "type": "SCALAR"
    }
  ],
  "asset": {
    "extras": {
      "author": "Fikz3D (https://sketchfab.com/Fikz3D)",
      "license": "CC-BY-4.0 (http://creativecommons.org/licenses/by/4.0/)",
      "source": "https://sketchfab.com/3d-models/gaming-chair-1-black-a29e45bf5fa341199524ac7695cbc2f3",
      "title": "Gaming Chair 1- Black"
    },
    "generator": "Sketchfab-12.0.0",
    "version": "2.0"
  },
  "bufferViews": [
    {
      "buffer": 0,
      "byteLength": 2335740,
      "name": "floatBufferViews",
      "target": 34963
    },
    {
      "buffer": 0,
      "byteLength": 1053728,
      "byteOffset": 2335740,
      "byteStride": 8,
      "name": "floatBufferViews",
      "target": 34962
    },
    {
      "buffer": 0,
      "byteLength": 3161184,
      "byteOffset": 3389468,
      "byteStride": 12,
      "name": "floatBufferViews",
      "target": 34962
    },
    {
      "buffer": 0,
      "byteLength": 2107456,
      "byteOffset": 6550652,
      "byteStride": 16,
      "name": "floatBufferViews",
      "target": 34962
    }
  ],
  "buffers": [
    {
      "byteLength": 8658108,
      "uri": "scene.bin"
    }
  ],
  "images": [
    {
      "uri": "textures/LOD13Material_003_baseColor.png"
    },
    {
      "uri": "textures/LOD13Material_003_metallicRoughness.png"
    },
    {
      "uri": "textures/LOD13Material_003_normal.png"
    }
  ],
  "materials": [
    {
      "doubleSided": true,
      "name": "LOD13Material_003",
      "normalTexture": {
        "index": 2
      },
      "pbrMetallicRoughness": {
        "baseColorTexture": {
          "index": 0
        },
        "metallicRoughnessTexture": {
          "index": 1
        }
      }
    }
  ],
  "meshes": [
    {
      "name": "LOD13:Mesh_LOD13:Material_003_0",
      "primitives": [
        {
          "attributes": {
            "NORMAL": 1,
            "POSITION": 0,
            "TANGENT": 2,
            "TEXCOORD_0": 3
          },
          "indices": 4,
          "material": 0,
          "mode": 4
        }
      ]
    },
    {
      "name": "LOD13:Mesh_LOD13:Material_003_0",
      "primitives": [
        {
          "attributes": {
            "NORMAL": 6,
            "POSITION": 5,
            "TANGENT": 7,
            "TEXCOORD_0": 8
          },
          "indices": 9,
          "material": 0,
          "mode": 4
        }
      ]
    },
    {
      "name": "LOD13:Mesh_LOD13:Material_003_0",
      "primitives": [
        {
          "attributes": {
            "NORMAL": 11,
            "POSITION": 10,
            "TANGENT": 12,
            "TEXCOORD_0": 13
          },
          "indices": 14,
          "material": 0,
          "mode": 4
        }
      ]
    }
  ],
  "nodes": [
    {
      "children": [
        1
      ],
      "matrix": [
        1.0,
        0.0,
        0.0,
        0.0,
        0.0,
        2.220446049250313e-16,
        -1.0,
        0.0,
        0.0,
        1.0,
        2.220446049250313e-16,
        0.0,
        0.0,
        0.0,
        0.0,
        1.0
      ],
      "name": "Sketchfab_model"
    },
    {
      "children": [
        2
      ],
      "matrix": [
        0.009999999776482582,
        0.0,
        0.0,
        0.0,
        0.0,
        0.0,
        0.009999999776482582,
        0.0,
        0.0,
        -0.009999999776482582,
        0.0,
        0.0,
        0.0,
        0.0,
        0.0,
        1.0
      ],
      "name": "ASSET.fbx"
    },
    {
      "children": [
        3
      ],
      "name": "RootNode"
    },
    {
      "children": [
        4,
        5,
        6
      ],
      "name": "LOD13:Mesh"
    },
    {
      "mesh": 0,
      "name": "LOD13:Mesh_LOD13:Material_003_0"
    },
    {
      "mesh": 1,
      "name": "LOD13:Mesh_LOD13:Material_003_0"
    },
    {
      "mesh": 2,
      "name": "LOD13:Mesh_LOD13:Material_003_0"
    }
  ],
  "samplers": [
    {
      "magFilter": 9729,
      "minFilter": 9987,
      "wrapS": 10497,
      "wrapT": 10497
    }
  ],
  "scene": 0,
  "scenes": [
    {
      "name": "Sketchfab_Scene",
      "nodes": [
        0
      ]
    }
  ],
  "textures": [
    {
      "sampler": 0,
      "source": 0
    },
    {
      "sampler": 0,
      "source": 1
    },
    {
      "sampler": 0,
      "source": 2
    }
  ]
}
