{
  "accessors": [
    {
      "bufferView": 2,
      "componentType": 5126,
      "count": 11795,
      "max": [
        86.19181823730469,
        30.0,
        62.316001892089844
      ],
      "min": [
        -86.03456115722656,
        -31.07372283935547,
        -0.3934236466884613
      ],
      "type": "VEC3"
    },
    {
      "bufferView": 2,
      "byteOffset": 141540,
      "componentType": 5126,
      "count": 11795,
      "max": [
        1.0,
        1.0,
        1.0
      ],
      "min": [
        -1.0,
        -1.0,
        -1.0
      ],
      "type": "VEC3"
    },
    {
      "bufferView": 3,
      "componentType": 5126,
      "count": 11795,
      "max": [
        1.0,
        1.0,
        1.0,
        1.0
      ],
      "min": [
        1.0,
        1.0,
        1.0,
        1.0
      ],
      "type": "VEC4"
    },
    {
      "bufferView": 1,
      "componentType": 5126,
      "count": 11795,
      "max": [
        2.460940361022949,
        2.527772903442383
      ],
      "min": [
        -1.4609427452087402,
        -1.403429388999939
      ],
      "type": "VEC2"
    },
    {
      "bufferView": 0,
      "componentType": 5125,
      "count": 62496,
      "type": "SCALAR"
    },
    {
      "bufferView": 2,
      "byteOffset": 283080,
      "componentType": 5126,
      "count": 480,
      "max": [
        84.21795654296875,
        26.5582275390625,
        0.06456851959228516
      ],
      "min": [
        -84.06068420410156,
        -28.511775970458984,
        -11.935431480407715
      ],
      "type": "VEC3"
    },
    {
      "bufferView": 2,
      "byteOffset": 288840,
      "componentType": 5126,
      "count": 480,
      "max": [
        1.0,
        1.0,
        1.0
      ],
      "min": [
        -1.0,
        -1.0,
        -1.0
      ],
      "type": "VEC3"
    },
    {
      "bufferView": 3,
      "byteOffset": 188720,
      "componentType": 5126,
      "count": 480,
      "max": [
        1.0,
        1.0,
        1.0,
        1.0
      ],
      "min": [
        1.0,
        1.0,
        1.0,
        1.0
      ],
      "type": "VEC4"
    },
    {
      "bufferView": 1,
      "byteOffset": 94360,
      "componentType": 5126,
      "count": 480,
      "max": [
        0.9028182029724121,
        0.9239915609359741
      ],
      "min": [
        0.09718173742294312,
        -0.4883233308792114
      ],
      "type": "VEC2"
    },
    {
      "bufferView": 0,
      "byteOffset": 249984,
      "componentType": 5125,
      "count": 720,
      "type": "SCALAR"
    },
    {
      "bufferView": 2,
      "byteOffset": 294600,
      "componentType": 5126,
      "count": 14294,
      "max": [
        75.31504821777344,
        20.44448471069336,
        23.23883056640625
      ],
      "min": [
        -74.8156509399414,
        -33.678955078125,
        10.557640075683594
      ],
      "type": "VEC3"
    },
    {
      "bufferView": 2,
      "byteOffset": 466128,
      "componentType": 5126,
      "count": 14294,
      "max": [
        1.0,
        1.0,
        1.0
      ],
      "min": [
        -1.0,
        -0.9999917149543762,
        -0.999994695186615
      ],
      "type": "VEC3"
    },
    {
      "bufferView": 3,
      "byteOffset": 196400,
      "componentType": 5126,
      "count": 14294,
      "max": [
        1.0,
        1.0,
        1.0,
        1.0
      ],
      "min": [
        0.0,
        0.0,
        0.0,
        1.0
      ],
      "type": "VEC4"
    },
    {
      "bufferView": 1,
      "byteOffset": 98200,
      "componentType": 5126,
      "count": 14294,
      "max": [
        1.6171724796295166,
        1.651792287826538
      ],
      "min": [
        -0.6171728372573853,
        -0.26736223697662354
      ],
      "type": "VEC2"
    },
    {
      "bufferView": 0,
      "byteOffset": 252864,
      "componentType": 5125,
      "count": 64512,
      "type": "SCALAR"
    }
  ],
  "asset": {
    "extras": {
      "author": "KJPakal (https://sketchfab.com/KJPakal)",
      "license": "CC-BY-4.0 (http://creativecommons.org/licenses/by/4.0/)",
      "source": "https://sketchfab.com/3d-models/sofa-9a8b2caf923e408bb67dbca4aaa248fc",
      "title": "Sofa"
    },
    "generator": "Sketchfab-12.8.0",
    "version": "2.0"
  },
  "bufferViews": [
    {
      "buffer": 0,
      "byteLength": 510912,
      "name": "floatBufferViews",
      "target": 34963
    },
    {
      "buffer": 0,
      "byteLength": 212552,
      "byteOffset": 510912,
      "byteStride": 8,
      "name": "floatBufferViews",
      "target": 34962
    },
    {
      "buffer": 0,
      "byteLength": 637656,
      "byteOffset": 723464,
      "byteStride": 12,
      "name": "floatBufferViews",
      "target": 34962
    },
    {
      "buffer": 0,
      "byteLength": 425104,
      "byteOffset": 1361120,
      "byteStride": 16,
      "name": "floatBufferViews",
      "target": 34962
    }
  ],
  "buffers": [
    {
      "byteLength": 1786224,
      "uri": "scene.bin"
    }
  ],
  "images": [
    {
      "uri": "textures/Material_106_baseColor.jpeg"
    },
    {
      "uri": "textures/Material_107_baseColor.jpeg"
    }
  ],
  "materials": [
    {
      "doubleSided": true,
      "name": "Material_106",
      "pbrMetallicRoughness": {
        "baseColorTexture": {
          "index": 0
        },
        "metallicFactor": 0.0,
        "roughnessFactor": 0.9018543658669016
      }
    },
    {
      "doubleSided": true,
      "name": "Material_107",
      "pbrMetallicRoughness": {
        "baseColorTexture": {
          "index": 1
        },
        "metallicFactor": 0.0,
        "roughnessFactor": 0.8377747756761826
      }
    }
  ],
  "meshes": [
    {
      "name": "Sillon_001_Material #106_0",
      "primitives": [
        {
          "attributes": {
            "COLOR_0": 2,
            "NORMAL": 1,
            "POSITION": 0,
            "TEXCOORD_0": 3
          },
          "indices": 4,
          "material": 0,
          "mode": 4
        }
      ]
    },
    {
      "name": "Sillon_001_Material #107_0",
      "primitives": [
        {
          "attributes": {
            "COLOR_0": 7,
            "NORMAL": 6,
            "POSITION": 5,
            "TEXCOORD_0": 8
          },
          "indices": 9,
          "material": 1,
          "mode": 4
        }
      ]
    },
    {
      "name": "Object001_Material #106_0",
      "primitives": [
        {
          "attributes": {
            "COLOR_0": 12,
            "NORMAL": 11,
            "POSITION": 10,
            "TEXCOORD_0": 13
          },
          "indices": 14,
          "material": 0,
          "mode": 4
        }
      ]
    }
  ],
  "nodes": [
    {
      "children": [
        1
      ],
      "matrix": [
        1.0,
        0.0,
        0.0,
        0.0,
        0.0,
        2.220446049250313e-16,
        -1.0,
        0.0,
        0.0,
        1.0,
        2.220446049250313e-16,
        0.0,
        0.0,
        0.0,
        0.0,
        1.0
      ],
      "name": "Sketchfab_model"
    },
    {
      "children": [
        2
      ],
      "matrix": [
        0.009999999776482582,
        0.0,
        0.0,
        0.0,
        0.0,
        0.0,
        0.009999999776482582,
        0.0,
        0.0,
        -0.009999999776482582,
        0.0,
        0.0,
        0.0,
        0.0,
        0.0,
        1.0
      ],
      "name": "sofa.fbx"
    },
    {
      "children": [
        3,
        6
      ],
      "name": "RootNode"
    },
    {
      "children": [
        4,
        5
      ],
      "matrix": [
        1.0,
        0.0,
        0.0,
        0.0,
        0.0,
        2.220446049250313e-16,
        -1.0,
        0.0,
        0.0,
        1.0,
        2.220446049250313e-16,
        0.0,
        -4.608966827392578,
        0.0,
        9.343780517578125,
        1.0
      ],
      "name": "Sillon_001"
    },
    {
      "mesh": 0,
      "name": "Sillon_001_Material #106_0"
    },
    {
      "mesh": 1,
      "name": "Sillon_001_Material #107_0"
    },
    {
      "children": [
        7
      ],
      "matrix": [
        1.0,
        0.0,
        0.0,
        0.0,
        0.0,
        2.220446049250313e-16,
        -1.0,
        0.0,
        0.0,
        1.0,
        2.220446049250313e-16,
        0.0,
        -4.608966827392578,
        0.0,
        9.343780517578125,
        1.0
      ],
      "name": "Object001"
    },
    {
      "mesh": 2,
      "name": "Object001_Material #106_0"
    }
  ],
  "samplers": [
    {
      "magFilter": 9729,
      "minFilter": 9987,
      "wrapS": 10497,
      "wrapT": 10497
    }
  ],
  "scene": 0,
  "scenes": [
    {
      "name": "Sketchfab_Scene",
      "nodes": [
        0
      ]
    }
  ],
  "textures": [
    {
      "sampler": 0,
      "source": 0
    },
    {
      "sampler": 0,
      "source": 1
    }
  ]
}
